<mxfile host="Electron" modified="2023-05-20T10:26:43.894Z" agent="Mozilla/5.0 (Windows NT 10.0; Win64; x64) AppleWebKit/537.36 (KHTML, like Gecko) draw.io/21.2.8 Chrome/112.0.5615.165 Electron/24.2.0 Safari/537.36" etag="lbQ0tZuSFqoF7ymHuqMV" version="21.2.8" type="device">
  <diagram name="페이지-1" id="Jw_VSQ_Z35y2hl4-dUQj">
    <mxGraphModel dx="1250" dy="791" grid="1" gridSize="10" guides="1" tooltips="1" connect="1" arrows="1" fold="1" page="1" pageScale="1" pageWidth="827" pageHeight="1169" math="0" shadow="0">
      <root>
        <mxCell id="0" />
        <mxCell id="1" parent="0" />
        <mxCell id="ctPcMZ8cNtCoBixHX1E7-18" value="&lt;p style=&quot;border-color: var(--border-color); text-align: center; margin: 4px 0px 0px;&quot;&gt;&lt;font style=&quot;font-size: 24px;&quot;&gt;Employment&lt;/font&gt;&lt;/p&gt;&lt;hr size=&quot;1&quot;&gt;&lt;p style=&quot;margin:0px;margin-left:4px;&quot;&gt;&lt;font size=&quot;3&quot;&gt;- companyname: String {not null}&lt;/font&gt;&lt;/p&gt;&lt;p style=&quot;margin:0px;margin-left:4px;&quot;&gt;&lt;font size=&quot;3&quot;&gt;- businessnum: Integer&lt;/font&gt;&lt;/p&gt;&lt;p style=&quot;margin:0px;margin-left:4px;&quot;&gt;&lt;font size=&quot;3&quot;&gt;- work: String&lt;/font&gt;&lt;/p&gt;&lt;p style=&quot;margin:0px;margin-left:4px;&quot;&gt;&lt;font size=&quot;3&quot;&gt;- peoplenum: Integer&lt;/font&gt;&lt;/p&gt;&lt;p style=&quot;margin:0px;margin-left:4px;&quot;&gt;&lt;font size=&quot;3&quot;&gt;- limitdate: Date&lt;/font&gt;&lt;/p&gt;&lt;hr size=&quot;1&quot;&gt;&lt;p style=&quot;border-color: var(--border-color); margin: 0px 0px 0px 4px;&quot;&gt;&lt;font size=&quot;3&quot;&gt;+ getEmploymentDetails(): Employment&lt;/font&gt;&lt;/p&gt;" style="verticalAlign=top;align=left;overflow=fill;fontSize=12;fontFamily=Helvetica;html=1;whiteSpace=wrap;" parent="1" vertex="1">
          <mxGeometry x="44" y="530" width="370" height="185" as="geometry" />
        </mxCell>
        <mxCell id="ctPcMZ8cNtCoBixHX1E7-20" value="&lt;p style=&quot;border-color: var(--border-color); text-align: center; margin: 4px 0px 0px;&quot;&gt;&lt;span style=&quot;background-color: initial;&quot;&gt;&lt;font style=&quot;font-size: 24px;&quot;&gt;MyApply&lt;/font&gt;&lt;/span&gt;&lt;/p&gt;&lt;hr size=&quot;1&quot;&gt;&lt;p style=&quot;border-color: var(--border-color); margin: 0px 0px 0px 4px;&quot;&gt;&lt;span style=&quot;font-size: medium; background-color: initial;&quot;&gt;- applycompany: String {not null}&lt;/span&gt;&lt;/p&gt;&lt;p style=&quot;border-color: var(--border-color); margin: 0px 0px 0px 4px;&quot;&gt;&lt;span style=&quot;font-size: medium; background-color: initial;&quot;&gt;- applynum: Integer&lt;/span&gt;&lt;/p&gt;&lt;p style=&quot;border-color: var(--border-color); margin: 0px 0px 0px 4px;&quot;&gt;&lt;font style=&quot;border-color: var(--border-color);&quot; size=&quot;3&quot;&gt;- applywork: String&lt;/font&gt;&lt;/p&gt;&lt;p style=&quot;border-color: var(--border-color); margin: 0px 0px 0px 4px;&quot;&gt;&lt;font style=&quot;border-color: var(--border-color);&quot; size=&quot;3&quot;&gt;- applypeoplenum: Integer&lt;/font&gt;&lt;/p&gt;&lt;p style=&quot;border-color: var(--border-color); margin: 0px 0px 0px 4px;&quot;&gt;&lt;font style=&quot;border-color: var(--border-color);&quot; size=&quot;3&quot;&gt;- applylimit: Date&lt;/font&gt;&lt;/p&gt;&lt;hr size=&quot;1&quot;&gt;&lt;p style=&quot;border-color: var(--border-color); margin: 0px 0px 0px 4px;&quot;&gt;&lt;font size=&quot;3&quot;&gt;+ getMyApply(): MyApply&lt;/font&gt;&lt;/p&gt;" style="verticalAlign=top;align=left;overflow=fill;fontSize=12;fontFamily=Helvetica;html=1;whiteSpace=wrap;" parent="1" vertex="1">
          <mxGeometry x="827" y="515" width="370" height="215" as="geometry" />
        </mxCell>
        <mxCell id="ctPcMZ8cNtCoBixHX1E7-21" value="&lt;p style=&quot;border-color: var(--border-color); text-align: center; margin: 4px 0px 0px;&quot;&gt;&lt;span style=&quot;background-color: initial;&quot;&gt;&lt;font style=&quot;font-size: 24px;&quot;&gt;MyApplyCollection&lt;/font&gt;&lt;/span&gt;&lt;/p&gt;&lt;hr size=&quot;1&quot;&gt;&lt;p style=&quot;border-color: var(--border-color); margin: 0px 0px 0px 4px;&quot;&gt;&lt;span style=&quot;font-size: medium; background-color: initial;&quot;&gt;- ownedMyApply: MyApply[*]&lt;/span&gt;&lt;br&gt;&lt;/p&gt;&lt;hr size=&quot;1&quot;&gt;&lt;p style=&quot;border-color: var(--border-color); margin: 0px 0px 0px 4px;&quot;&gt;&lt;font size=&quot;3&quot;&gt;+ addMyApply(applycompany: String, applynum: Integer, applyWork: String, applypeoplenum: Integer, applylimit: Date)&lt;/font&gt;&lt;/p&gt;&lt;p style=&quot;border-color: var(--border-color); margin: 0px 0px 0px 4px;&quot;&gt;&lt;font size=&quot;3&quot;&gt;+ deleteMyApply()&lt;/font&gt;&lt;/p&gt;&lt;p style=&quot;border-color: var(--border-color); margin: 0px 0px 0px 4px;&quot;&gt;&lt;font size=&quot;3&quot;&gt;+ getMyApplys(): MyApply&lt;/font&gt;&lt;/p&gt;" style="verticalAlign=top;align=left;overflow=fill;fontSize=12;fontFamily=Helvetica;html=1;whiteSpace=wrap;" parent="1" vertex="1">
          <mxGeometry x="825.5" y="924" width="373" height="186" as="geometry" />
        </mxCell>
        <mxCell id="ctPcMZ8cNtCoBixHX1E7-24" value="&lt;p style=&quot;border-color: var(--border-color); text-align: center; margin: 4px 0px 0px;&quot;&gt;&lt;font style=&quot;font-size: 24px;&quot;&gt;&lt;span style=&quot;background-color: initial; border-color: var(--border-color);&quot;&gt;User Interface::&lt;/span&gt;&lt;span style=&quot;background-color: initial; border-color: var(--border-color);&quot;&gt;ApplyInquiryandCancelUI&lt;/span&gt;&lt;br&gt;&lt;/font&gt;&lt;/p&gt;&lt;hr size=&quot;1&quot;&gt;&lt;p style=&quot;margin:0px;margin-left:4px;&quot;&gt;&lt;font size=&quot;3&quot;&gt;&lt;br&gt;&lt;/font&gt;&lt;/p&gt;&lt;hr size=&quot;1&quot;&gt;&lt;p style=&quot;border-color: var(--border-color); margin: 0px 0px 0px 4px;&quot;&gt;&lt;font size=&quot;3&quot;&gt;startInterface()&lt;/font&gt;&lt;/p&gt;&lt;p style=&quot;border-color: var(--border-color); margin: 0px 0px 0px 4px;&quot;&gt;&lt;font size=&quot;3&quot;&gt;inquireMyApplys()&lt;/font&gt;&lt;/p&gt;&lt;p style=&quot;border-color: var(--border-color); margin: 0px 0px 0px 4px;&quot;&gt;&lt;font size=&quot;3&quot;&gt;cancelMyApply()&lt;/font&gt;&lt;/p&gt;" style="verticalAlign=top;align=left;overflow=fill;fontSize=12;fontFamily=Helvetica;html=1;whiteSpace=wrap;" parent="1" vertex="1">
          <mxGeometry x="44" y="270" width="536" height="160" as="geometry" />
        </mxCell>
        <mxCell id="ctPcMZ8cNtCoBixHX1E7-25" value="&lt;p style=&quot;border-color: var(--border-color); text-align: center; margin: 4px 0px 0px;&quot;&gt;&lt;font style=&quot;font-size: 24px;&quot;&gt;&lt;span style=&quot;background-color: initial; border-color: var(--border-color);&quot;&gt;Control::&lt;/span&gt;&lt;span style=&quot;background-color: initial; border-color: var(--border-color);&quot;&gt;ApplyInquiryandCancel&lt;/span&gt;&lt;br&gt;&lt;/font&gt;&lt;/p&gt;&lt;hr size=&quot;1&quot;&gt;&lt;p style=&quot;margin:0px;margin-left:4px;&quot;&gt;&lt;font size=&quot;3&quot;&gt;&lt;br&gt;&lt;/font&gt;&lt;/p&gt;&lt;hr size=&quot;1&quot;&gt;&lt;p style=&quot;border-color: var(--border-color); margin: 0px 0px 0px 4px;&quot;&gt;&lt;font size=&quot;3&quot;&gt;showMyApplys()&lt;/font&gt;&lt;/p&gt;&lt;p style=&quot;border-color: var(--border-color); margin: 0px 0px 0px 4px;&quot;&gt;&lt;font size=&quot;3&quot;&gt;showDeletedMyApply()&lt;/font&gt;&lt;/p&gt;" style="verticalAlign=top;align=left;overflow=fill;fontSize=12;fontFamily=Helvetica;html=1;whiteSpace=wrap;" parent="1" vertex="1">
          <mxGeometry x="820" y="270" width="520" height="140" as="geometry" />
        </mxCell>
        <mxCell id="ctPcMZ8cNtCoBixHX1E7-27" value="&lt;font style=&quot;font-size: 24px;&quot;&gt;apply then add&lt;/font&gt;" style="text;html=1;strokeColor=none;fillColor=none;align=center;verticalAlign=middle;whiteSpace=wrap;rounded=0;" parent="1" vertex="1">
          <mxGeometry x="590" y="650" width="60" height="30" as="geometry" />
        </mxCell>
        <mxCell id="ctPcMZ8cNtCoBixHX1E7-28" value="&lt;font style=&quot;font-size: 18px;&quot;&gt;1&lt;/font&gt;" style="text;html=1;strokeColor=none;fillColor=none;align=center;verticalAlign=middle;whiteSpace=wrap;rounded=0;" parent="1" vertex="1">
          <mxGeometry x="403" y="585" width="60" height="30" as="geometry" />
        </mxCell>
        <mxCell id="ctPcMZ8cNtCoBixHX1E7-30" value="" style="ellipse;shape=umlEntity;whiteSpace=wrap;html=1;" parent="1" vertex="1">
          <mxGeometry x="330" y="535" width="30" height="30" as="geometry" />
        </mxCell>
        <mxCell id="ctPcMZ8cNtCoBixHX1E7-31" value="" style="ellipse;shape=umlEntity;whiteSpace=wrap;html=1;" parent="1" vertex="1">
          <mxGeometry x="1100" y="520" width="30" height="30" as="geometry" />
        </mxCell>
        <mxCell id="ctPcMZ8cNtCoBixHX1E7-32" value="" style="ellipse;shape=umlEntity;whiteSpace=wrap;html=1;" parent="1" vertex="1">
          <mxGeometry x="1120" y="924" width="30" height="30" as="geometry" />
        </mxCell>
        <mxCell id="ctPcMZ8cNtCoBixHX1E7-35" value="" style="shape=umlBoundary;whiteSpace=wrap;html=1;" parent="1" vertex="1">
          <mxGeometry x="537" y="274" width="30" height="30" as="geometry" />
        </mxCell>
        <mxCell id="ctPcMZ8cNtCoBixHX1E7-38" value="" style="ellipse;shape=umlControl;whiteSpace=wrap;html=1;" parent="1" vertex="1">
          <mxGeometry x="1270" y="270" width="30" height="30" as="geometry" />
        </mxCell>
        <mxCell id="ctPcMZ8cNtCoBixHX1E7-43" value="" style="shape=mxgraph.arrows2.wedgeArrow;html=1;bendable=0;startWidth=13.333333333333336;fillColor=strokeColor;defaultFillColor=invert;defaultGradientColor=invert;rounded=0;" parent="1" edge="1">
          <mxGeometry width="100" height="100" relative="1" as="geometry">
            <mxPoint x="660" y="660" as="sourcePoint" />
            <mxPoint x="683" y="660" as="targetPoint" />
          </mxGeometry>
        </mxCell>
        <mxCell id="ctPcMZ8cNtCoBixHX1E7-46" value="&lt;font style=&quot;font-size: 18px;&quot;&gt;1&lt;/font&gt;" style="text;html=1;strokeColor=none;fillColor=none;align=center;verticalAlign=middle;whiteSpace=wrap;rounded=0;" parent="1" vertex="1">
          <mxGeometry x="1010" y="886" width="60" height="30" as="geometry" />
        </mxCell>
        <mxCell id="7-FWG_sjRZYxyjjnytHl-1" value="" style="group" vertex="1" connectable="0" parent="1">
          <mxGeometry x="44" y="20" width="616" height="210" as="geometry" />
        </mxCell>
        <mxCell id="ctPcMZ8cNtCoBixHX1E7-16" value="&lt;p style=&quot;border-color: var(--border-color); text-align: center; margin: 4px 0px 0px;&quot;&gt;&lt;font style=&quot;font-size: 24px;&quot;&gt;&lt;span style=&quot;background-color: initial; border-color: var(--border-color);&quot;&gt;User Interface::&lt;/span&gt;&lt;span style=&quot;background-color: initial; border-color: var(--border-color);&quot;&gt;EmploymentSearchAndApplyUI&lt;/span&gt;&lt;br&gt;&lt;/font&gt;&lt;/p&gt;&lt;hr size=&quot;1&quot;&gt;&lt;p style=&quot;margin:0px;margin-left:4px;&quot;&gt;&lt;font size=&quot;3&quot;&gt;&lt;br&gt;&lt;/font&gt;&lt;/p&gt;&lt;hr size=&quot;1&quot;&gt;&lt;p style=&quot;border-color: var(--border-color); margin: 0px 0px 0px 4px;&quot;&gt;&lt;font size=&quot;3&quot;&gt;startInterface()&lt;br style=&quot;border-color: var(--border-color);&quot;&gt;&lt;/font&gt;&lt;/p&gt;&lt;p style=&quot;border-color: var(--border-color); margin: 0px 0px 0px 4px;&quot;&gt;&lt;font size=&quot;3&quot;&gt;searchbyCompanyName()&lt;/font&gt;&lt;/p&gt;&lt;p style=&quot;border-color: var(--border-color); margin: 0px 0px 0px 4px;&quot;&gt;&lt;font size=&quot;3&quot;&gt;applyEmployment()&lt;/font&gt;&lt;/p&gt;" style="verticalAlign=top;align=left;overflow=fill;fontSize=12;fontFamily=Helvetica;html=1;whiteSpace=wrap;" parent="7-FWG_sjRZYxyjjnytHl-1" vertex="1">
          <mxGeometry width="616" height="210" as="geometry" />
        </mxCell>
        <mxCell id="ctPcMZ8cNtCoBixHX1E7-33" value="" style="shape=umlBoundary;whiteSpace=wrap;html=1;" parent="7-FWG_sjRZYxyjjnytHl-1" vertex="1">
          <mxGeometry x="566" y="5" width="30" height="30" as="geometry" />
        </mxCell>
        <mxCell id="7-FWG_sjRZYxyjjnytHl-2" value="" style="group" vertex="1" connectable="0" parent="1">
          <mxGeometry x="820" y="20" width="530" height="205" as="geometry" />
        </mxCell>
        <mxCell id="ctPcMZ8cNtCoBixHX1E7-17" value="&lt;p style=&quot;border-color: var(--border-color); text-align: center; margin: 4px 0px 0px;&quot;&gt;&lt;font style=&quot;font-size: 24px;&quot;&gt;&lt;span style=&quot;background-color: initial;&quot;&gt;Control::EmploymentSearchAndApply&lt;/span&gt;&lt;br&gt;&lt;/font&gt;&lt;/p&gt;&lt;hr size=&quot;1&quot;&gt;&lt;p style=&quot;margin:0px;margin-left:4px;&quot;&gt;&lt;font size=&quot;3&quot;&gt;&lt;br&gt;&lt;/font&gt;&lt;/p&gt;&lt;hr size=&quot;1&quot;&gt;&lt;p style=&quot;border-color: var(--border-color); margin: 0px 0px 0px 4px;&quot;&gt;&lt;font size=&quot;3&quot;&gt;showCompanyEmplyoment()&lt;/font&gt;&lt;/p&gt;&lt;p style=&quot;border-color: var(--border-color); margin: 0px 0px 0px 4px;&quot;&gt;&lt;font size=&quot;3&quot;&gt;showAppliedEmplyoment()&lt;/font&gt;&lt;/p&gt;" style="verticalAlign=top;align=left;overflow=fill;fontSize=12;fontFamily=Helvetica;html=1;whiteSpace=wrap;" parent="7-FWG_sjRZYxyjjnytHl-2" vertex="1">
          <mxGeometry width="530" height="205" as="geometry" />
        </mxCell>
        <mxCell id="ctPcMZ8cNtCoBixHX1E7-36" value="" style="ellipse;shape=umlControl;whiteSpace=wrap;html=1;" parent="7-FWG_sjRZYxyjjnytHl-2" vertex="1">
          <mxGeometry x="480" width="30" height="30" as="geometry" />
        </mxCell>
        <mxCell id="7-FWG_sjRZYxyjjnytHl-3" value="&lt;font style=&quot;font-size: 18px;&quot;&gt;0..*&lt;/font&gt;" style="text;html=1;strokeColor=none;fillColor=none;align=center;verticalAlign=middle;whiteSpace=wrap;rounded=0;" vertex="1" parent="1">
          <mxGeometry x="1019" y="740" width="60" height="30" as="geometry" />
        </mxCell>
        <mxCell id="7-FWG_sjRZYxyjjnytHl-7" value="" style="group" vertex="1" connectable="0" parent="1">
          <mxGeometry x="890" y="810" width="160" height="60" as="geometry" />
        </mxCell>
        <mxCell id="ctPcMZ8cNtCoBixHX1E7-47" value="&lt;font style=&quot;font-size: 24px;&quot;&gt;owns&lt;/font&gt;" style="text;html=1;strokeColor=none;fillColor=none;align=center;verticalAlign=middle;whiteSpace=wrap;rounded=0;" parent="7-FWG_sjRZYxyjjnytHl-7" vertex="1">
          <mxGeometry y="30" width="160" height="30" as="geometry" />
        </mxCell>
        <mxCell id="ctPcMZ8cNtCoBixHX1E7-49" value="" style="shape=mxgraph.arrows2.wedgeArrow;html=1;bendable=0;startWidth=13.333333333333336;fillColor=strokeColor;defaultFillColor=invert;defaultGradientColor=invert;rounded=0;" parent="7-FWG_sjRZYxyjjnytHl-7" edge="1">
          <mxGeometry width="100" height="100" relative="1" as="geometry">
            <mxPoint x="80" y="20" as="sourcePoint" />
            <mxPoint x="80" as="targetPoint" />
          </mxGeometry>
        </mxCell>
        <mxCell id="7-FWG_sjRZYxyjjnytHl-8" value="&lt;font style=&quot;font-size: 18px;&quot;&gt;1&lt;/font&gt;" style="text;html=1;strokeColor=none;fillColor=none;align=center;verticalAlign=middle;whiteSpace=wrap;rounded=0;" vertex="1" parent="1">
          <mxGeometry x="770" y="585" width="60" height="30" as="geometry" />
        </mxCell>
        <mxCell id="7-FWG_sjRZYxyjjnytHl-11" value="" style="endArrow=open;html=1;endSize=12;startArrow=diamondThin;startSize=14;startFill=1;edgeStyle=orthogonalEdgeStyle;align=left;verticalAlign=bottom;rounded=0;entryX=0.5;entryY=1;entryDx=0;entryDy=0;exitX=0.5;exitY=0;exitDx=0;exitDy=0;" edge="1" parent="1" source="ctPcMZ8cNtCoBixHX1E7-21" target="ctPcMZ8cNtCoBixHX1E7-20">
          <mxGeometry x="-1" y="3" relative="1" as="geometry">
            <mxPoint x="560" y="890" as="sourcePoint" />
            <mxPoint x="720" y="890" as="targetPoint" />
          </mxGeometry>
        </mxCell>
        <mxCell id="7-FWG_sjRZYxyjjnytHl-17" value="" style="endArrow=open;endFill=1;endSize=12;html=1;rounded=0;entryX=1;entryY=0.5;entryDx=0;entryDy=0;exitX=0;exitY=0.5;exitDx=0;exitDy=0;" edge="1" parent="1" source="ctPcMZ8cNtCoBixHX1E7-20" target="ctPcMZ8cNtCoBixHX1E7-18">
          <mxGeometry width="160" relative="1" as="geometry">
            <mxPoint x="660" y="970" as="sourcePoint" />
            <mxPoint x="820" y="970" as="targetPoint" />
          </mxGeometry>
        </mxCell>
      </root>
    </mxGraphModel>
  </diagram>
</mxfile>
